<?xml version="1.0" encoding="UTF-8"?>
<svg height="600" width="800" xmlns="http://www.w3.org/2000/svg" xmlns:xlink="http://www.w3.org/1999/xlink">
    <g id="Notes" font-family="'LucidaGrande', 'Lucida Grande', sans-serif" font-size="13">
        <rect fill="white" height="600.0" width="800.0" x="0.0" y="0.0" />
        <g font-size="13">
            <text x="18.0" y="176.0">Small</text>
            <text x="18.0" y="376.0">Medium</text>
            <text x="18.0" y="576.0">Large</text>
        </g>
        <g font-size="9">
            <text x="250.0" y="30.0">Ultralight</text>
            <text x="450.0" y="30.0">Regular</text>
            <text x="650.0" y="30.0">Black</text>
            <text id="template-version" fill="#505050" text-anchor="end" x="785.0" y="575.0">Template v.3.0</text>
            <a href="https://wangchujiang.com/#/app">
                <text fill="#505050" text-anchor="end" x="785.0" y="590.0">https://wangchujiang.com/#/app</text>
            </a>
        </g>
    </g>
    <g id="Guides" stroke="rgb(39, 170, 225)" stroke-width="0.5">
        <path id="Capline-S" d="M18,76 l800,0" />
        <path id="H-reference" d="M85,145.755 L87.685,145.755 L113.369,79.287 L114.052,79.287 L114.052,76 L112.148,76 L85,145.755 Z M95.693,121.536 L130.996,121.536 L130.263,119.313 L96.474,119.313 L95.693,121.536 Z M139.15,145.755 L141.787,145.755 L114.638,76 L113.466,76 L113.466,79.287 L139.15,145.755 Z" stroke="none" />
        <path id="Baseline-S" d="M18,146 l800,0" />
        <path id="left-margin-Ultralight-S" d="M217.349,56 l0,110" />
        <path id="right-margin-Ultralight-S" d="M312.651,56 l0,110" />
        <path id="left-margin-Regular-S" d="M417.349,56 l0,110" />
        <path id="right-margin-Regular-S" d="M512.651,56 l0,110" />
        <path id="left-margin-Black-S" d="M617.349,56 l0,110" />
        <path id="right-margin-Black-S" d="M712.651,56 l0,110" />
        <path id="Capline-M" d="M18,276 l800,0" />
        <path id="Baseline-M" d="M18,346 l800,0" />
        <path id="Capline-L" d="M18,476 l800,0" />
        <path id="Baseline-L" d="M18,546 l800,0" />
    </g>
    <g id="Symbols">
        <g id="Ultralight-S">
            <path d="M283.165,107.456 C283.165,105.743 284.553,104.354 286.266,104.354 L293.894,104.354 C293.999,104.355 294.102,104.318 294.182,104.251 C294.262,104.183 294.317,104.085 294.334,103.981 L294.334,103.967 L296.39,91.669 L296.393,91.666 C296.551,90.728 296.367,89.764 295.878,88.949 C295.388,88.134 294.623,87.519 293.721,87.218 L281.773,83.234 C281.025,86.269 279.465,89.073 277.218,91.32 C273.978,94.56 269.582,96.38 265,96.38 C260.418,96.38 256.022,94.56 252.782,91.32 C250.535,89.072 248.971,86.269 248.223,83.234 L236.279,87.218 C235.376,87.519 234.612,88.133 234.122,88.949 C233.694,89.662 233.497,90.488 233.562,91.313 L233.607,91.666 L233.607,91.669 L235.663,103.967 L235.666,103.981 C235.683,104.085 235.735,104.183 235.815,104.251 C235.895,104.319 236,104.355 236.106,104.354 L243.734,104.354 C245.447,104.355 246.835,105.743 246.835,107.456 L246.835,135.81 C246.835,137.996 248.637,139.797 250.823,139.797 L279.177,139.797 C280.234,139.797 281.247,139.378 281.995,138.631 C282.742,137.883 283.165,136.868 283.165,135.81 L283.165,107.456 Z M289.367,135.81 C289.367,138.513 288.294,141.106 286.383,143.016 C284.473,144.927 281.879,146 279.177,146 L250.823,146 C245.211,146 240.633,141.422 240.633,135.81 L240.633,110.557 L236.113,110.557 L236.113,110.553 C234.534,110.556 233.007,110 231.803,108.979 C230.597,107.955 229.796,106.535 229.543,104.974 L229.547,104.971 L227.491,92.697 L227.38,91.794 C227.216,89.688 227.711,87.577 228.806,85.754 C230.058,83.671 232.011,82.102 234.316,81.334 L249.84,76.159 C250.786,75.844 251.828,76.002 252.636,76.585 C253.445,77.168 253.924,78.105 253.924,79.101 C253.924,82.039 255.09,84.857 257.167,86.934 C259.244,89.011 262.063,90.177 265,90.177 C267.937,90.177 270.756,89.011 272.833,86.934 C274.91,84.857 276.076,82.039 276.076,79.101 C276.076,78.104 276.555,77.168 277.364,76.585 C278.172,76.003 279.211,75.844 280.157,76.159 L295.681,81.334 L296.528,81.659 C298.465,82.502 300.099,83.931 301.194,85.754 C302.446,87.837 302.913,90.301 302.509,92.697 L300.453,104.971 L300.457,104.974 C300.204,106.535 299.402,107.955 298.197,108.979 C296.993,110 295.463,110.556 293.884,110.553 L293.884,110.557 L289.367,110.557 L289.367,135.81 Z" />
        </g>
        <g id="Regular-S">
            <path d="M483.165,107.456 C483.165,105.743 484.553,104.354 486.266,104.354 L493.894,104.354 C493.999,104.355 494.102,104.318 494.182,104.251 C494.262,104.183 494.317,104.085 494.334,103.981 L494.334,103.967 L496.39,91.669 L496.393,91.666 C496.551,90.728 496.367,89.764 495.878,88.949 C495.388,88.134 494.623,87.519 493.721,87.218 L481.773,83.234 C481.025,86.269 479.465,89.073 477.218,91.32 C473.978,94.56 469.582,96.38 465,96.38 C460.418,96.38 456.022,94.56 452.782,91.32 C450.535,89.072 448.971,86.269 448.223,83.234 L436.279,87.218 C435.376,87.519 434.612,88.133 434.122,88.949 C433.694,89.662 433.497,90.488 433.562,91.313 L433.607,91.666 L433.607,91.669 L435.663,103.967 L435.666,103.981 C435.683,104.085 435.735,104.183 435.815,104.251 C435.895,104.319 436,104.355 436.106,104.354 L443.734,104.354 C445.447,104.355 446.835,105.743 446.835,107.456 L446.835,135.81 C446.835,137.996 448.637,139.797 450.823,139.797 L479.177,139.797 C480.234,139.797 481.247,139.378 481.995,138.631 C482.742,137.883 483.165,136.868 483.165,135.81 L483.165,107.456 Z M489.367,135.81 C489.367,138.513 488.294,141.106 486.383,143.016 C484.473,144.927 481.879,146 479.177,146 L450.823,146 C445.211,146 440.633,141.422 440.633,135.81 L440.633,110.557 L436.113,110.557 L436.113,110.553 C434.534,110.556 433.007,110 431.803,108.979 C430.597,107.955 429.796,106.535 429.543,104.974 L429.547,104.971 L427.491,92.697 L427.38,91.794 C427.216,89.688 427.711,87.577 428.806,85.754 C430.058,83.671 432.011,82.102 434.316,81.334 L449.84,76.159 C450.786,75.844 451.828,76.002 452.636,76.585 C453.445,77.168 453.924,78.105 453.924,79.101 C453.924,82.039 455.09,84.857 457.167,86.934 C459.244,89.011 462.063,90.177 465,90.177 C467.937,90.177 470.756,89.011 472.833,86.934 C474.91,84.857 476.076,82.039 476.076,79.101 C476.076,78.104 476.555,77.168 477.364,76.585 C478.172,76.003 479.211,75.844 480.157,76.159 L495.681,81.334 L496.528,81.659 C498.465,82.502 500.099,83.931 501.194,85.754 C502.446,87.837 502.913,90.301 502.509,92.697 L500.453,104.971 L500.457,104.974 C500.204,106.535 499.402,107.955 498.197,108.979 C496.993,110 495.463,110.556 493.884,110.553 L493.884,110.557 L489.367,110.557 L489.367,135.81 Z" />
        </g>
        <g id="Black-S">
            <path d="M683.165,107.456 C683.165,105.743 684.553,104.354 686.266,104.354 L693.894,104.354 C693.999,104.355 694.102,104.318 694.182,104.251 C694.262,104.183 694.317,104.085 694.334,103.981 L694.334,103.967 L696.39,91.669 L696.393,91.666 C696.551,90.728 696.367,89.764 695.878,88.949 C695.388,88.134 694.623,87.519 693.721,87.218 L681.773,83.234 C681.025,86.269 679.465,89.073 677.218,91.32 C673.978,94.56 669.582,96.38 665,96.38 C660.418,96.38 656.022,94.56 652.782,91.32 C650.535,89.072 648.971,86.269 648.223,83.234 L636.279,87.218 C635.376,87.519 634.612,88.133 634.122,88.949 C633.694,89.662 633.497,90.488 633.562,91.313 L633.607,91.666 L633.607,91.669 L635.663,103.967 L635.666,103.981 C635.683,104.085 635.735,104.183 635.815,104.251 C635.895,104.319 636,104.355 636.106,104.354 L643.734,104.354 C645.447,104.355 646.835,105.743 646.835,107.456 L646.835,135.81 C646.835,137.996 648.637,139.797 650.823,139.797 L679.177,139.797 C680.234,139.797 681.247,139.378 681.995,138.631 C682.742,137.883 683.165,136.868 683.165,135.81 L683.165,107.456 Z M689.367,135.81 C689.367,138.513 688.294,141.106 686.383,143.016 C684.473,144.927 681.879,146 679.177,146 L650.823,146 C645.211,146 640.633,141.422 640.633,135.81 L640.633,110.557 L636.113,110.557 L636.113,110.553 C634.534,110.556 633.007,110 631.803,108.979 C630.597,107.955 629.796,106.535 629.543,104.974 L629.547,104.971 L627.491,92.697 L627.38,91.794 C627.216,89.688 627.711,87.577 628.806,85.754 C630.058,83.671 632.011,82.102 634.316,81.334 L649.84,76.159 C650.786,75.844 651.828,76.002 652.636,76.585 C653.445,77.168 653.924,78.105 653.924,79.101 C653.924,82.039 655.09,84.857 657.167,86.934 C659.244,89.011 662.063,90.177 665,90.177 C667.937,90.177 670.756,89.011 672.833,86.934 C674.91,84.857 676.076,82.039 676.076,79.101 C676.076,78.104 676.555,77.168 677.364,76.585 C678.172,76.003 679.211,75.844 680.157,76.159 L695.681,81.334 L696.528,81.659 C698.465,82.502 700.099,83.931 701.194,85.754 C702.446,87.837 702.913,90.301 702.509,92.697 L700.453,104.971 L700.457,104.974 C700.204,106.535 699.402,107.955 698.197,108.979 C696.993,110 695.463,110.556 693.884,110.553 L693.884,110.557 L689.367,110.557 L689.367,135.81 Z" />
        </g>
    </g>
</svg>