<?xml version="1.0" encoding="UTF-8"?>
<svg height="600" width="800" xmlns="http://www.w3.org/2000/svg" xmlns:xlink="http://www.w3.org/1999/xlink">
    <g id="Notes" font-family="'LucidaGrande', 'Lucida Grande', sans-serif" font-size="13">
        <rect fill="white" height="600.0" width="800.0" x="0.0" y="0.0" />
        <g font-size="13">
            <text x="18.0" y="176.0">Small</text>
            <text x="18.0" y="376.0">Medium</text>
            <text x="18.0" y="576.0">Large</text>
        </g>
        <g font-size="9">
            <text x="250.0" y="30.0">Ultralight</text>
            <text x="450.0" y="30.0">Regular</text>
            <text x="650.0" y="30.0">Black</text>
            <text id="template-version" fill="#505050" text-anchor="end" x="785.0" y="575.0">Template v.3.0</text>
            <a href="https://wangchujiang.com/#/app">
                <text fill="#505050" text-anchor="end" x="785.0" y="590.0">https://wangchujiang.com/#/app</text>
            </a>
        </g>
    </g>
    <g id="Guides" stroke="rgb(39, 170, 225)" stroke-width="0.5">
        <path id="Capline-S" d="M18,76 l800,0" />
        <path id="H-reference" d="M85,145.755 L87.685,145.755 L113.369,79.287 L114.052,79.287 L114.052,76 L112.148,76 L85,145.755 Z M95.693,121.536 L130.996,121.536 L130.263,119.313 L96.474,119.313 L95.693,121.536 Z M139.15,145.755 L141.787,145.755 L114.638,76 L113.466,76 L113.466,79.287 L139.15,145.755 Z" stroke="none" />
        <path id="Baseline-S" d="M18,146 l800,0" />
        <path id="left-margin-Ultralight-S" d="M220,56 l0,110" />
        <path id="right-margin-Ultralight-S" d="M310,56 l0,110" />
        <path id="left-margin-Regular-S" d="M420,56 l0,110" />
        <path id="right-margin-Regular-S" d="M510,56 l0,110" />
        <path id="left-margin-Black-S" d="M620,56 l0,110" />
        <path id="right-margin-Black-S" d="M710,56 l0,110" />
        <path id="Capline-M" d="M18,276 l800,0" />
        <path id="Baseline-M" d="M18,346 l800,0" />
        <path id="Capline-L" d="M18,476 l800,0" />
        <path id="Baseline-L" d="M18,546 l800,0" />
    </g>
    <g id="Symbols">
        <g id="Ultralight-S">
            <path d="M295.93,76.013 L296.549,76.107 L297.149,76.286 C297.538,76.433 297.904,76.634 298.236,76.883 L298.708,77.292 L299.12,77.767 C299.369,78.099 299.57,78.465 299.717,78.854 L299.896,79.451 L299.987,80.07 C300.034,80.675 299.952,81.284 299.751,81.861 L299.754,81.864 L278.837,143.007 L278.837,143.01 C278.544,143.864 277.997,144.61 277.269,145.144 C276.542,145.678 275.667,145.975 274.765,145.999 C273.862,146.022 272.973,145.769 272.219,145.273 C271.465,144.777 270.88,144.061 270.544,143.224 L270.544,143.22 L260.312,117.699 C260.129,117.246 259.856,116.835 259.51,116.49 C259.165,116.145 258.754,115.873 258.301,115.691 L258.297,115.691 L232.78,105.456 C231.942,105.12 231.227,104.535 230.731,103.781 C230.234,103.027 229.978,102.138 230.001,101.235 L230.023,100.899 C230.103,100.118 230.392,99.371 230.859,98.734 L231.07,98.467 C231.582,97.871 232.247,97.419 232.993,97.163 L294.135,76.246 L294.135,76.249 C294.713,76.047 295.324,75.966 295.93,76.013 Z M237.893,101.44 L260.394,110.462 L261.242,110.855 C262.069,111.287 262.826,111.843 263.489,112.505 C264.152,113.166 264.711,113.922 265.145,114.749 L265.538,115.597 L265.538,115.6 L274.557,138.107 L293.626,82.37 L237.893,101.44 Z" />
            <path d="M294.716,77.305 C295.816,76.206 297.598,76.207 298.698,77.305 C299.797,78.405 299.797,80.19 298.698,81.29 L263.494,116.49 C262.395,117.59 260.609,117.59 259.51,116.49 C258.411,115.391 258.411,113.608 259.51,112.508 L294.716,77.305 Z" />
        </g>
        <g id="Regular-S">
            <path d="M495.93,76.013 L496.549,76.107 L497.149,76.286 C497.538,76.433 497.904,76.634 498.236,76.883 L498.708,77.292 L499.12,77.767 C499.369,78.099 499.57,78.465 499.717,78.854 L499.896,79.451 L499.987,80.07 C500.034,80.675 499.952,81.284 499.751,81.861 L499.754,81.864 L478.837,143.007 L478.837,143.01 C478.544,143.864 477.997,144.61 477.269,145.144 C476.542,145.678 475.667,145.975 474.765,145.999 C473.862,146.022 472.973,145.769 472.219,145.273 C471.465,144.777 470.88,144.061 470.544,143.224 L470.544,143.22 L460.312,117.699 C460.129,117.246 459.856,116.835 459.51,116.49 C459.165,116.145 458.754,115.873 458.301,115.691 L458.297,115.691 L432.78,105.456 C431.942,105.12 431.227,104.535 430.731,103.781 C430.234,103.027 429.978,102.138 430.001,101.235 L430.023,100.899 C430.103,100.118 430.392,99.371 430.859,98.734 L431.07,98.467 C431.582,97.871 432.247,97.419 432.993,97.163 L494.135,76.246 L494.135,76.249 C494.713,76.047 495.324,75.966 495.93,76.013 Z M437.893,101.44 L460.394,110.462 L461.242,110.855 C462.069,111.287 462.826,111.843 463.489,112.505 C464.152,113.166 464.711,113.922 465.145,114.749 L465.538,115.597 L465.538,115.6 L474.557,138.107 L493.626,82.37 L437.893,101.44 Z" />
            <path d="M494.716,77.305 C495.816,76.206 497.598,76.207 498.698,77.305 C499.797,78.405 499.797,80.19 498.698,81.29 L463.494,116.49 C462.395,117.59 460.609,117.59 459.51,116.49 C458.411,115.391 458.411,113.608 459.51,112.508 L494.716,77.305 Z" />
        </g>
        <g id="Black-S">
            <path d="M695.93,76.013 L696.549,76.107 L697.149,76.286 C697.538,76.433 697.904,76.634 698.236,76.883 L698.708,77.292 L699.12,77.767 C699.369,78.099 699.57,78.465 699.717,78.854 L699.896,79.451 L699.987,80.07 C700.034,80.675 699.952,81.284 699.751,81.861 L699.754,81.864 L678.837,143.007 L678.837,143.01 C678.544,143.864 677.997,144.61 677.269,145.144 C676.542,145.678 675.667,145.975 674.765,145.999 C673.862,146.022 672.973,145.769 672.219,145.273 C671.465,144.777 670.88,144.061 670.544,143.224 L670.544,143.22 L660.312,117.699 C660.129,117.246 659.856,116.835 659.51,116.49 C659.165,116.145 658.754,115.873 658.301,115.691 L658.297,115.691 L632.78,105.456 C631.942,105.12 631.227,104.535 630.731,103.781 C630.234,103.027 629.978,102.138 630.001,101.235 L630.023,100.899 C630.104,100.118 630.392,99.371 630.859,98.734 L631.07,98.467 C631.582,97.871 632.247,97.419 632.993,97.163 L694.135,76.246 L694.135,76.249 C694.713,76.047 695.324,75.966 695.93,76.013 Z M637.893,101.44 L660.394,110.462 L661.242,110.855 C662.068,111.287 662.826,111.843 663.489,112.505 C664.152,113.166 664.711,113.922 665.145,114.749 L665.538,115.597 L665.538,115.6 L674.557,138.107 L693.626,82.37 L637.893,101.44 Z" />
            <path d="M694.716,77.305 C695.816,76.206 697.598,76.207 698.698,77.305 C699.797,78.405 699.797,80.19 698.698,81.29 L663.494,116.49 C662.395,117.59 660.609,117.59 659.51,116.49 C658.411,115.391 658.411,113.608 659.51,112.508 L694.716,77.305 Z" />
        </g>
    </g>
</svg>