<?xml version="1.0" encoding="UTF-8"?>
<svg height="600" width="800" xmlns="http://www.w3.org/2000/svg" xmlns:xlink="http://www.w3.org/1999/xlink">
    <g id="Notes" font-family="'LucidaGrande', 'Lucida Grande', sans-serif" font-size="13">
        <rect fill="white" height="600.0" width="800.0" x="0.0" y="0.0" />
        <g font-size="13">
            <text x="18.0" y="176.0">Small</text>
            <text x="18.0" y="376.0">Medium</text>
            <text x="18.0" y="576.0">Large</text>
        </g>
        <g font-size="9">
            <text x="250.0" y="30.0">Ultralight</text>
            <text x="450.0" y="30.0">Regular</text>
            <text x="650.0" y="30.0">Black</text>
            <text id="template-version" fill="#505050" text-anchor="end" x="785.0" y="575.0">Template v.3.0</text>
            <a href="https://wangchujiang.com/#/app">
                <text fill="#505050" text-anchor="end" x="785.0" y="590.0">https://wangchujiang.com/#/app</text>
            </a>
        </g>
    </g>
    <g id="Guides" stroke="rgb(39, 170, 225)" stroke-width="0.5">
        <path id="Capline-S" d="M18,76 l800,0" />
        <path id="H-reference" d="M85,145.755 L87.685,145.755 L113.369,79.287 L114.052,79.287 L114.052,76 L112.148,76 L85,145.755 Z M95.693,121.536 L130.996,121.536 L130.263,119.313 L96.474,119.313 L95.693,121.536 Z M139.15,145.755 L141.787,145.755 L114.638,76 L113.466,76 L113.466,79.287 L139.15,145.755 Z" stroke="none" />
        <path id="Baseline-S" d="M18,146 l800,0" />
        <path id="left-margin-Ultralight-S" d="M214.4,56 l0,110" />
        <path id="right-margin-Ultralight-S" d="M315.6,56 l0,110" />
        <path id="left-margin-Regular-S" d="M414.4,56 l0,110" />
        <path id="right-margin-Regular-S" d="M515.6,56 l0,110" />
        <path id="left-margin-Black-S" d="M614.4,56 l0,110" />
        <path id="right-margin-Black-S" d="M715.6,56 l0,110" />
        <path id="Capline-M" d="M18,276 l800,0" />
        <path id="Baseline-M" d="M18,346 l800,0" />
        <path id="Capline-L" d="M18,476 l800,0" />
        <path id="Baseline-L" d="M18,546 l800,0" />
    </g>
    <g id="Symbols">
        <g id="Ultralight-S">
            <path d="M224.4,101.667 L224.4,86.733 C224.4,83.887 225.53,81.156 227.543,79.143 C229.556,77.13 232.287,76 235.133,76 L249.695,76 L249.695,76.004 C251.478,75.992 253.235,76.423 254.81,77.261 C256.383,78.099 257.722,79.314 258.707,80.798 L261.733,85.279 L261.755,85.311 C262.137,85.891 262.657,86.367 263.268,86.697 C263.88,87.027 264.567,87.2 265.262,87.2 L294.867,87.2 C297.713,87.2 300.444,88.33 302.457,90.343 C304.47,92.355 305.6,95.087 305.6,97.933 L305.6,135.267 C305.6,138.113 304.47,140.844 302.457,142.857 C300.444,144.87 297.713,146 294.867,146 L235.133,146 C232.287,146 229.556,144.87 227.543,142.857 C225.53,140.844 224.4,138.113 224.4,135.267 L224.4,131.533 C224.4,129.729 225.863,128.267 227.667,128.267 C229.471,128.267 230.933,129.729 230.933,131.533 L230.933,135.267 C230.933,136.38 231.374,137.45 232.162,138.238 C232.95,139.026 234.019,139.467 235.133,139.467 L294.867,139.467 C295.981,139.467 297.05,139.026 297.838,138.238 C298.625,137.45 299.067,136.38 299.067,135.267 L299.067,97.933 C299.067,96.82 298.625,95.753 297.838,94.966 C297.05,94.178 295.981,93.733 294.867,93.733 L265.262,93.733 C263.485,93.733 261.734,93.293 260.169,92.45 C258.616,91.613 257.295,90.405 256.319,88.935 L253.297,84.455 L253.275,84.422 C252.889,83.836 252.36,83.356 251.74,83.025 C251.12,82.696 250.426,82.526 249.724,82.533 L235.133,82.533 C234.019,82.533 232.95,82.978 232.162,83.766 C231.375,84.553 230.933,85.62 230.933,86.733 L230.933,101.667 C230.933,103.471 229.471,104.933 227.667,104.933 C225.863,104.933 224.4,103.471 224.4,101.667 Z" />
            <path d="M265,113.334 C266.804,113.334 268.267,114.796 268.267,116.6 C268.267,118.404 266.804,119.867 265,119.867 L227.667,119.867 C225.863,119.867 224.4,118.404 224.4,116.6 C224.4,114.796 225.863,113.334 227.667,113.334 L265,113.334 Z" />
            <path d="M251.49,103.089 C252.766,101.813 254.837,101.813 256.113,103.089 L267.313,114.289 C268.589,115.565 268.589,117.636 267.313,118.912 L256.113,130.112 C254.837,131.388 252.766,131.388 251.49,130.112 C250.214,128.836 250.214,126.765 251.49,125.489 L260.379,116.601 L251.49,107.712 C250.214,106.436 250.214,104.365 251.49,103.089 Z" />
        </g>
        <g id="Regular-S">
            <path d="M424.4,101.667 L424.4,86.733 C424.4,83.887 425.53,81.156 427.543,79.143 C429.556,77.13 432.287,76 435.133,76 L449.695,76 L449.695,76.004 C451.478,75.992 453.235,76.423 454.81,77.261 C456.383,78.099 457.722,79.314 458.707,80.798 L461.733,85.279 L461.755,85.311 C462.137,85.891 462.657,86.367 463.268,86.697 C463.88,87.027 464.567,87.2 465.262,87.2 L494.867,87.2 C497.713,87.2 500.444,88.33 502.457,90.343 C504.47,92.355 505.6,95.087 505.6,97.933 L505.6,135.267 C505.6,138.113 504.47,140.844 502.457,142.857 C500.444,144.87 497.713,146 494.867,146 L435.133,146 C432.287,146 429.556,144.87 427.543,142.857 C425.53,140.844 424.4,138.113 424.4,135.267 L424.4,131.533 C424.4,129.729 425.863,128.267 427.667,128.267 C429.471,128.267 430.933,129.729 430.933,131.533 L430.933,135.267 C430.933,136.38 431.374,137.45 432.162,138.238 C432.95,139.026 434.019,139.467 435.133,139.467 L494.867,139.467 C495.981,139.467 497.05,139.026 497.838,138.238 C498.625,137.45 499.067,136.38 499.067,135.267 L499.067,97.933 C499.067,96.82 498.625,95.753 497.838,94.966 C497.05,94.178 495.981,93.733 494.867,93.733 L465.262,93.733 C463.485,93.733 461.734,93.293 460.169,92.45 C458.616,91.613 457.295,90.405 456.319,88.935 L453.297,84.455 L453.275,84.422 C452.889,83.836 452.36,83.356 451.74,83.025 C451.12,82.696 450.426,82.526 449.724,82.533 L435.133,82.533 C434.019,82.533 432.95,82.978 432.162,83.766 C431.375,84.553 430.933,85.62 430.933,86.733 L430.933,101.667 C430.933,103.471 429.471,104.933 427.667,104.933 C425.863,104.933 424.4,103.471 424.4,101.667 Z" />
            <path d="M465,113.334 C466.804,113.334 468.267,114.796 468.267,116.6 C468.267,118.404 466.804,119.867 465,119.867 L427.667,119.867 C425.863,119.867 424.4,118.404 424.4,116.6 C424.4,114.796 425.863,113.334 427.667,113.334 L465,113.334 Z" />
            <path d="M451.49,103.089 C452.766,101.813 454.837,101.813 456.113,103.089 L467.313,114.289 C468.589,115.565 468.589,117.636 467.313,118.912 L456.113,130.112 C454.837,131.388 452.766,131.388 451.49,130.112 C450.214,128.836 450.214,126.765 451.49,125.489 L460.379,116.601 L451.49,107.712 C450.214,106.436 450.214,104.365 451.49,103.089 Z" />
        </g>
        <g id="Black-S">
            <path d="M624.4,101.667 L624.4,86.733 C624.4,83.887 625.53,81.156 627.543,79.143 C629.556,77.13 632.287,76 635.133,76 L649.695,76 L649.695,76.004 C651.478,75.992 653.235,76.423 654.81,77.261 C656.383,78.099 657.722,79.314 658.708,80.798 L661.733,85.279 L661.755,85.311 C662.137,85.891 662.657,86.367 663.268,86.697 C663.88,87.027 664.567,87.2 665.262,87.2 L694.867,87.2 C697.713,87.2 700.444,88.33 702.457,90.343 C704.47,92.355 705.6,95.087 705.6,97.933 L705.6,135.267 C705.6,138.113 704.47,140.844 702.457,142.857 C700.444,144.87 697.713,146 694.867,146 L635.133,146 C632.287,146 629.556,144.87 627.543,142.857 C625.53,140.844 624.4,138.113 624.4,135.267 L624.4,131.533 C624.4,129.729 625.863,128.267 627.667,128.267 C629.471,128.267 630.933,129.729 630.933,131.533 L630.933,135.267 C630.933,136.38 631.375,137.45 632.162,138.238 C632.95,139.026 634.019,139.467 635.133,139.467 L694.867,139.467 C695.981,139.467 697.05,139.026 697.838,138.238 C698.625,137.45 699.067,136.38 699.067,135.267 L699.067,97.933 C699.067,96.82 698.625,95.753 697.838,94.966 C697.05,94.178 695.981,93.733 694.867,93.733 L665.262,93.733 C663.485,93.733 661.734,93.293 660.169,92.45 C658.616,91.613 657.295,90.405 656.319,88.935 L653.297,84.455 L653.275,84.422 C652.889,83.836 652.36,83.356 651.74,83.025 C651.12,82.696 650.426,82.526 649.724,82.533 L635.133,82.533 C634.019,82.533 632.95,82.978 632.162,83.766 C631.375,84.553 630.934,85.62 630.933,86.733 L630.933,101.667 C630.933,103.471 629.471,104.933 627.667,104.933 C625.863,104.933 624.4,103.471 624.4,101.667 Z" />
            <path d="M665,113.334 C666.804,113.334 668.267,114.796 668.267,116.6 C668.267,118.404 666.804,119.867 665,119.867 L627.667,119.867 C625.863,119.867 624.4,118.404 624.4,116.6 C624.4,114.796 625.863,113.334 627.667,113.334 L665,113.334 Z" />
            <path d="M651.49,103.089 C652.766,101.813 654.837,101.813 656.113,103.089 L667.313,114.289 C668.589,115.565 668.589,117.636 667.313,118.912 L656.113,130.112 C654.837,131.388 652.766,131.388 651.49,130.112 C650.214,128.836 650.214,126.765 651.49,125.489 L660.379,116.601 L651.49,107.712 C650.214,106.436 650.214,104.365 651.49,103.089 Z" />
        </g>
    </g>
</svg>