<?xml version="1.0" encoding="UTF-8"?>
<svg height="600" width="800" xmlns="http://www.w3.org/2000/svg" xmlns:xlink="http://www.w3.org/1999/xlink">
    <g id="Notes" font-family="'LucidaGrande', 'Lucida Grande', sans-serif" font-size="13">
        <rect fill="white" height="600.0" width="800.0" x="0.0" y="0.0" />
        <g font-size="13">
            <text x="18.0" y="176.0">Small</text>
            <text x="18.0" y="376.0">Medium</text>
            <text x="18.0" y="576.0">Large</text>
        </g>
        <g font-size="9">
            <text x="250.0" y="30.0">Ultralight</text>
            <text x="450.0" y="30.0">Regular</text>
            <text x="650.0" y="30.0">Black</text>
            <text id="template-version" fill="#505050" text-anchor="end" x="785.0" y="575.0">Template v.3.0</text>
            <a href="https://wangchujiang.com/#/app">
                <text fill="#505050" text-anchor="end" x="785.0" y="590.0">https://wangchujiang.com/#/app</text>
            </a>
        </g>
    </g>
    <g id="Guides" stroke="rgb(39, 170, 225)" stroke-width="0.5">
        <path id="Capline-S" d="M18,76 l800,0" />
        <path id="H-reference" d="M85,145.755 L87.685,145.755 L113.369,79.287 L114.052,79.287 L114.052,76 L112.148,76 L85,145.755 Z M95.693,121.536 L130.996,121.536 L130.263,119.313 L96.474,119.313 L95.693,121.536 Z M139.15,145.755 L141.787,145.755 L114.638,76 L113.466,76 L113.466,79.287 L139.15,145.755 Z" stroke="none" />
        <path id="Baseline-S" d="M18,146 l800,0" />
        <path id="left-margin-Ultralight-S" d="M211,56 l0,110" />
        <path id="right-margin-Ultralight-S" d="M319,56 l0,110" />
        <path id="left-margin-Regular-S" d="M411,56 l0,110" />
        <path id="right-margin-Regular-S" d="M519,56 l0,110" />
        <path id="left-margin-Black-S" d="M611,56 l0,110" />
        <path id="right-margin-Black-S" d="M719,56 l0,110" />
        <path id="Capline-M" d="M18,276 l800,0" />
        <path id="Baseline-M" d="M18,346 l800,0" />
        <path id="Capline-L" d="M18,476 l800,0" />
        <path id="Baseline-L" d="M18,546 l800,0" />
    </g>
    <g id="Symbols">
        <g id="Ultralight-S">
            <path d="M256.908,103.414 C258.863,103.414 260.448,104.999 260.448,106.954 C260.448,108.909 258.863,110.494 256.908,110.494 L240.724,110.494 C238.769,110.494 237.184,108.909 237.184,106.954 C237.184,104.999 238.769,103.414 240.724,103.414 L256.908,103.414 Z" />
            <path d="M245.276,115.046 L245.276,98.862 C245.276,96.907 246.861,95.322 248.816,95.322 C250.771,95.322 252.356,96.907 252.356,98.862 L252.356,115.046 C252.356,117.001 250.771,118.586 248.816,118.586 C246.861,118.586 245.276,117.001 245.276,115.046 Z" />
            <path d="M277.178,107.46 C279.133,107.46 280.718,109.045 280.718,111 C280.718,112.955 279.133,114.54 277.178,114.54 L277.138,114.54 C275.183,114.54 273.598,112.955 273.598,111 C273.598,109.045 275.183,107.46 277.138,107.46 L277.178,107.46 Z" />
            <path d="M289.316,99.368 C291.271,99.368 292.856,100.953 292.856,102.908 C292.856,104.863 291.271,106.448 289.316,106.448 L289.276,106.448 C287.321,106.448 285.736,104.863 285.736,102.908 C285.736,100.953 287.321,99.368 289.276,99.368 L289.316,99.368 Z" />
            <path d="M273.787,123.644 C276.871,123.644 279.829,124.87 282.01,127.05 L282.014,127.05 L287.735,132.771 C289.721,134.757 290.832,135.782 293.322,135.782 C295.602,135.782 297.79,134.877 299.403,133.265 C301.015,131.652 301.92,129.464 301.92,127.184 C301.92,121.252 299.555,101.419 299.181,98.309 C299.158,98.144 299.142,97.992 299.13,97.882 C299.117,97.756 299.111,97.694 299.102,97.621 L299.098,97.57 C298.779,94.458 297.315,91.575 294.993,89.478 C292.67,87.381 289.651,86.219 286.522,86.218 L243.478,86.218 L242.309,86.274 C239.604,86.525 237.039,87.64 235.007,89.474 C232.684,91.57 231.222,94.454 230.902,97.566 L230.898,97.61 C230.894,97.644 230.853,98.001 230.823,98.238 L230.827,98.242 C230.481,101.12 228.08,121.211 228.08,127.184 C228.08,129.464 228.985,131.652 230.597,133.265 C232.21,134.877 234.398,135.782 236.678,135.782 C239.168,135.782 240.279,134.757 242.265,132.771 L247.986,127.05 C250.167,124.868 253.128,123.644 256.213,123.644 L273.787,123.644 Z M309,127.184 C309,131.342 307.349,135.33 304.409,138.271 C301.468,141.211 297.48,142.862 293.322,142.862 C287.719,142.862 284.785,139.841 282.725,137.781 L277.004,132.06 C276.257,131.313 275.279,130.852 274.238,130.748 L273.787,130.724 L256.213,130.724 C255.006,130.725 253.85,131.206 252.996,132.06 L247.275,137.781 C245.215,139.841 242.281,142.862 236.678,142.862 C232.52,142.862 228.531,141.211 225.591,138.271 C222.651,135.33 221,131.342 221,127.184 C221,120.664 223.487,99.977 223.797,97.396 L223.805,97.337 C223.83,97.156 223.82,97.183 223.865,96.796 C224.374,91.958 226.654,87.479 230.265,84.219 C233.888,80.95 238.594,79.139 243.474,79.138 L286.526,79.138 L287.439,79.158 C291.991,79.37 296.342,81.153 299.738,84.219 C303.348,87.478 305.621,91.957 306.131,96.792 L306.135,96.792 L306.195,97.329 L306.203,97.396 C306.513,99.977 309,120.66 309,127.184 Z" />
        </g>
        <g id="Regular-S">
            <path d="M456.908,103.414 C458.863,103.414 460.448,104.999 460.448,106.954 C460.448,108.909 458.863,110.494 456.908,110.494 L440.724,110.494 C438.769,110.494 437.184,108.909 437.184,106.954 C437.184,104.999 438.769,103.414 440.724,103.414 L456.908,103.414 Z" />
            <path d="M445.276,115.046 L445.276,98.862 C445.276,96.907 446.861,95.322 448.816,95.322 C450.771,95.322 452.356,96.907 452.356,98.862 L452.356,115.046 C452.356,117.001 450.771,118.586 448.816,118.586 C446.861,118.586 445.276,117.001 445.276,115.046 Z" />
            <path d="M477.178,107.46 C479.133,107.46 480.718,109.045 480.718,111 C480.718,112.955 479.133,114.54 477.178,114.54 L477.138,114.54 C475.183,114.54 473.598,112.955 473.598,111 C473.598,109.045 475.183,107.46 477.138,107.46 L477.178,107.46 Z" />
            <path d="M489.316,99.368 C491.271,99.368 492.856,100.953 492.856,102.908 C492.856,104.863 491.271,106.448 489.316,106.448 L489.276,106.448 C487.321,106.448 485.736,104.863 485.736,102.908 C485.736,100.953 487.321,99.368 489.276,99.368 L489.316,99.368 Z" />
            <path d="M473.787,123.644 C476.871,123.644 479.829,124.87 482.01,127.05 L482.014,127.05 L487.735,132.771 C489.721,134.757 490.832,135.782 493.322,135.782 C495.602,135.782 497.79,134.877 499.403,133.265 C501.015,131.652 501.92,129.464 501.92,127.184 C501.92,121.252 499.555,101.419 499.181,98.309 C499.158,98.144 499.142,97.992 499.13,97.882 C499.117,97.756 499.111,97.694 499.102,97.621 L499.098,97.57 C498.779,94.458 497.315,91.575 494.993,89.478 C492.67,87.381 489.651,86.219 486.522,86.218 L443.478,86.218 L442.309,86.274 C439.604,86.525 437.039,87.64 435.007,89.474 C432.684,91.57 431.222,94.454 430.902,97.566 L430.898,97.61 C430.894,97.644 430.853,98.001 430.823,98.238 L430.827,98.242 C430.481,101.12 428.08,121.211 428.08,127.184 C428.08,129.464 428.985,131.652 430.597,133.265 C432.21,134.877 434.398,135.782 436.678,135.782 C439.168,135.782 440.279,134.757 442.265,132.771 L447.986,127.05 C450.167,124.868 453.128,123.644 456.213,123.644 L473.787,123.644 Z M509,127.184 C509,131.342 507.349,135.33 504.409,138.271 C501.468,141.211 497.48,142.862 493.322,142.862 C487.719,142.862 484.785,139.841 482.725,137.781 L477.004,132.06 C476.257,131.313 475.279,130.852 474.238,130.748 L473.787,130.724 L456.213,130.724 C455.006,130.725 453.85,131.206 452.996,132.06 L447.275,137.781 C445.215,139.841 442.281,142.862 436.678,142.862 C432.52,142.862 428.531,141.211 425.591,138.271 C422.651,135.33 421,131.342 421,127.184 C421,120.664 423.487,99.977 423.797,97.396 L423.805,97.337 C423.83,97.156 423.82,97.183 423.865,96.796 C424.374,91.958 426.654,87.479 430.265,84.219 C433.888,80.95 438.594,79.139 443.474,79.138 L486.526,79.138 L487.439,79.158 C491.991,79.37 496.342,81.153 499.738,84.219 C503.348,87.478 505.621,91.957 506.131,96.792 L506.135,96.792 L506.195,97.329 L506.203,97.396 C506.513,99.977 509,120.66 509,127.184 Z" />
        </g>
        <g id="Black-S">
            <path d="M656.908,103.414 C658.863,103.414 660.448,104.999 660.448,106.954 C660.448,108.909 658.863,110.494 656.908,110.494 L640.724,110.494 C638.769,110.494 637.184,108.909 637.184,106.954 C637.184,104.999 638.769,103.414 640.724,103.414 L656.908,103.414 Z" />
            <path d="M645.276,115.046 L645.276,98.862 C645.276,96.907 646.861,95.322 648.816,95.322 C650.771,95.322 652.356,96.907 652.356,98.862 L652.356,115.046 C652.356,117.001 650.771,118.586 648.816,118.586 C646.861,118.586 645.276,117.001 645.276,115.046 Z" />
            <path d="M677.178,107.46 C679.133,107.46 680.718,109.045 680.718,111 C680.718,112.955 679.133,114.54 677.178,114.54 L677.138,114.54 C675.183,114.54 673.598,112.955 673.598,111 C673.598,109.045 675.183,107.46 677.138,107.46 L677.178,107.46 Z" />
            <path d="M689.315,99.368 C691.271,99.368 692.856,100.953 692.856,102.908 C692.856,104.863 691.271,106.448 689.315,106.448 L689.276,106.448 C687.321,106.448 685.736,104.863 685.736,102.908 C685.736,100.953 687.321,99.368 689.276,99.368 L689.315,99.368 Z" />
            <path d="M673.787,123.644 C676.871,123.644 679.829,124.87 682.01,127.05 L682.014,127.05 L687.735,132.771 C689.72,134.757 690.832,135.782 693.322,135.782 C695.602,135.782 697.79,134.877 699.403,133.265 C701.015,131.652 701.919,129.464 701.919,127.184 C701.919,121.252 699.555,101.419 699.181,98.309 C699.158,98.144 699.142,97.992 699.13,97.882 C699.117,97.756 699.111,97.694 699.102,97.621 L699.098,97.57 C698.779,94.458 697.315,91.575 694.993,89.478 C692.67,87.381 689.651,86.219 686.522,86.218 L643.478,86.218 L642.309,86.274 C639.604,86.525 637.039,87.64 635.007,89.474 C632.684,91.57 631.222,94.454 630.902,97.566 L630.898,97.61 C630.894,97.644 630.853,98.001 630.823,98.238 L630.826,98.242 C630.481,101.12 628.08,121.211 628.08,127.184 C628.08,129.464 628.985,131.652 630.597,133.265 C632.21,134.877 634.398,135.782 636.678,135.782 C639.168,135.782 640.279,134.757 642.265,132.771 L647.986,127.05 C650.167,124.868 653.128,123.644 656.213,123.644 L673.787,123.644 Z M709,127.184 C709,131.342 707.349,135.33 704.409,138.271 C701.468,141.211 697.48,142.862 693.322,142.862 C687.719,142.862 684.785,139.841 682.725,137.781 L677.004,132.06 C676.257,131.313 675.279,130.852 674.238,130.748 L673.787,130.724 L656.213,130.724 C655.006,130.725 653.85,131.206 652.996,132.06 L647.275,137.781 C645.215,139.841 642.281,142.862 636.678,142.862 C632.52,142.862 628.531,141.211 625.591,138.271 C622.651,135.33 621,131.342 621,127.184 C621,120.664 623.487,99.977 623.797,97.396 L623.805,97.337 C623.83,97.156 623.82,97.183 623.865,96.796 C624.374,91.958 626.654,87.479 630.265,84.219 C633.888,80.95 638.594,79.139 643.474,79.138 L686.526,79.138 L687.439,79.158 C691.991,79.37 696.342,81.153 699.738,84.219 C703.348,87.478 705.621,91.957 706.131,96.792 L706.135,96.792 L706.194,97.329 L706.203,97.396 C706.513,99.977 709,120.66 709,127.184 Z" />
        </g>
    </g>
</svg>